<svg width="27" height="28" viewBox="0 0 27 28" fill="none" xmlns="http://www.w3.org/2000/svg">
<g style="mix-blend-mode:darken">
<path d="M26.5272 0.469727C26.5884 0.506122 26.5558 0.565247 26.559 0.616164C26.565 0.714045 26.5607 0.812568 26.5607 0.923158C26.5111 1.05793 26.5302 1.18863 26.5175 1.31538C26.4618 1.87273 26.3521 2.42105 26.2525 2.97105C26.0342 4.17596 25.7648 5.3694 25.4583 6.5541C25.2492 7.36206 25.0173 8.16344 24.7709 8.96073C24.3876 10.2013 23.9476 11.4207 23.4599 12.6225C23.1991 13.2654 22.9179 13.8995 22.6215 14.5268C22.1199 15.5886 21.5687 16.6227 20.9621 17.6266C20.3552 18.631 19.6854 19.5903 18.9548 20.5063C18.3463 21.2691 17.6874 21.9853 16.984 22.6574C16.0209 23.5776 14.9733 24.3875 13.8339 25.0748C12.8511 25.6678 11.8184 26.1497 10.7376 26.5238C9.73473 26.871 8.70667 27.1178 7.6549 27.2537C6.5036 27.4025 5.43585 27.1423 4.4469 26.5408C4.13407 26.3505 3.87627 26.0917 3.6472 25.8026C3.50556 25.6239 3.54105 25.4188 3.55502 25.2233C3.58175 24.849 3.60854 24.4745 3.64834 24.101C3.71642 23.462 3.7999 22.8256 3.91158 22.193C4.0676 21.3091 4.28046 20.4395 4.56333 19.5886C4.87044 18.665 5.26857 17.7841 5.80809 16.9737C6.06183 16.5926 6.35161 16.2416 6.66161 15.9048C7.04458 15.4888 7.44147 15.0871 7.84302 14.6905C8.37491 14.1651 8.95067 13.6914 9.55843 13.2579C10.2377 12.7733 10.954 12.3533 11.7037 11.9923C12.3042 11.7031 12.9285 11.4711 13.5448 11.2197C14.4855 10.8358 15.4481 10.5101 16.3863 10.1202C17.0736 9.83466 17.7326 9.49072 18.384 9.12803C19.5157 8.49784 20.5792 7.75729 21.6776 7.07444C20.8137 7.62104 19.8765 8.01483 18.9481 8.42556C18.2957 8.7142 17.6364 8.98715 16.9596 9.21364C16.2212 9.46072 15.4651 9.6414 14.7119 9.83334C13.4996 10.1423 12.3225 10.5556 11.1818 11.0736C10.0592 11.5834 9.00528 12.2138 8.02209 12.9629C7.56013 13.3149 7.12243 13.6965 6.70003 14.0978C5.84511 14.91 5.11942 15.8276 4.47949 16.8191C3.80989 17.8565 3.33481 18.9812 2.98896 20.1672C2.77223 20.9104 2.59238 21.662 2.44177 22.4212C2.42053 22.5283 2.40999 22.6376 2.37909 22.7427C2.33928 22.8781 2.27041 22.907 2.1469 22.8379C1.99138 22.751 1.84748 22.6452 1.71446 22.5278C1.14953 22.0294 0.773163 21.4165 0.641058 20.6619C0.608124 20.4738 0.616809 20.2808 0.584391 20.0837C0.578125 19.3228 0.578125 18.5696 0.578125 17.804C0.633516 17.6906 0.610777 17.5765 0.614082 17.4718C0.63794 16.716 0.814278 15.9885 1.00422 15.2645C1.24236 14.3568 1.58534 13.4887 2.01808 12.6581C2.43044 11.8666 2.92068 11.1281 3.4984 10.45C3.69858 10.215 3.90465 9.98601 4.12149 9.76653C4.86735 9.01155 5.70079 8.37226 6.60565 7.82693C7.94369 7.02053 9.36382 6.40133 10.8496 5.9376C12.1296 5.53808 13.4361 5.25327 14.7591 5.04263C15.5642 4.91446 16.3721 4.80947 17.1813 4.71437C17.8918 4.63087 18.6034 4.5555 19.3134 4.46793C20.2126 4.35704 21.1114 4.23691 21.9806 3.96467C22.6599 3.75191 23.2983 3.44496 23.903 3.06618C24.5269 2.67542 25.0866 2.2044 25.5866 1.6621C25.8666 1.35842 26.1194 1.03127 26.3421 0.681196C26.391 0.604178 26.4368 0.523741 26.5272 0.469727Z" fill="#53D203"/>
</g>
</svg>

